<?xml version="1.0" encoding="UTF-8" standalone="no"?>
<!DOCTYPE svg PUBLIC "-//W3C//DTD SVG 1.1//EN"
 "http://www.w3.org/Graphics/SVG/1.1/DTD/svg11.dtd">
<!-- Generated by graphviz version 2.36.0 (20140111.2315)
 -->
<!-- Title: G Pages: 1 -->
<svg width="628pt" height="230pt"
 viewBox="0.00 0.00 628.00 230.00" xmlns="http://www.w3.org/2000/svg" xmlns:xlink="http://www.w3.org/1999/xlink">
<g id="graph0" class="graph" transform="scale(1 1) rotate(0) translate(4 226)">
<title>G</title>
<polygon fill="white" stroke="none" points="-4,4 -4,-226 624,-226 624,4 -4,4"/>
<!-- Elem -->
<g id="node1" class="node"><title>Elem</title>
<polygon fill="none" stroke="black" points="76,-185 76,-221 130,-221 130,-185 76,-185"/>
<text text-anchor="middle" x="103" y="-200.5" font-family="Arial" font-size="10.00">Elem</text>
</g>
<!-- Relation -->
<g id="node2" class="node"><title>Relation</title>
<polygon fill="none" stroke="black" points="0,-87 0,-147 108,-147 108,-87 0,-87"/>
<text text-anchor="middle" x="54" y="-135" font-family="Arial" font-size="10.00">Relation</text>
<polyline fill="none" stroke="black" points="0,-128 108,-128 "/>
<text text-anchor="start" x="8" y="-116" font-family="Arial" font-size="10.00">val entity: Entity</text>
<text text-anchor="start" x="8" y="-105" font-family="Arial" font-size="10.00">val link: RelationType</text>
<text text-anchor="start" x="8" y="-94" font-family="Arial" font-size="10.00">val tail: Model</text>
</g>
<!-- Relation&#45;&gt;Elem -->
<g id="edge2" class="edge"><title>Relation&#45;&gt;Elem</title>
<path fill="none" stroke="black" d="M71.1378,-147.379C76.5453,-156.649 82.4803,-166.823 87.7471,-175.852"/>
<polygon fill="none" stroke="black" points="84.8817,-177.886 92.9437,-184.761 90.9281,-174.359 84.8817,-177.886"/>
</g>
<!-- Node_ -->
<g id="node3" class="node"><title>Node_</title>
<polygon fill="none" stroke="black" points="126,-99 126,-135 180,-135 180,-99 126,-99"/>
<text text-anchor="middle" x="153" y="-114.5" font-family="Arial" font-size="10.00">Node</text>
</g>
<!-- Node_&#45;&gt;Elem -->
<g id="edge1" class="edge"><title>Node_&#45;&gt;Elem</title>
<path fill="none" stroke="black" d="M142.64,-135.405C135.621,-147.196 126.225,-162.981 118.343,-176.224"/>
<polygon fill="none" stroke="black" points="115.283,-174.522 113.176,-184.905 121.298,-178.102 115.283,-174.522"/>
</g>
<!-- MapTo -->
<g id="node4" class="node"><title>MapTo</title>
<polygon fill="none" stroke="black" points="223,-99 223,-135 277,-135 277,-99 223,-99"/>
<text text-anchor="middle" x="250" y="-114.5" font-family="Arial" font-size="10.00">MapTo</text>
</g>
<!-- Key -->
<g id="node5" class="node"><title>Key</title>
<polygon fill="none" stroke="black" points="481,-99 481,-135 535,-135 535,-99 481,-99"/>
<text text-anchor="middle" x="508" y="-114.5" font-family="Arial" font-size="10.00">Key</text>
</g>
<!-- Attribute -->
<g id="node6" class="node"><title>Attribute</title>
<polygon fill="none" stroke="black" points="163.5,-6 163.5,-44 228.5,-44 228.5,-6 163.5,-6"/>
<text text-anchor="middle" x="196" y="-32" font-family="Arial" font-size="10.00">Attribute[T]</text>
<polyline fill="none" stroke="black" points="163.5,-25 228.5,-25 "/>
<text text-anchor="middle" x="196" y="-13" font-family="Arial" font-size="10.00">val value: T</text>
</g>
<!-- Attribute&#45;&gt;Node_ -->
<g id="edge3" class="edge"><title>Attribute&#45;&gt;Node_</title>
<path fill="none" stroke="black" d="M187.298,-44.2128C181.058,-57.2745 172.555,-75.0702 165.577,-89.6753"/>
<polygon fill="none" stroke="black" points="162.404,-88.1984 161.251,-98.7303 168.72,-91.2161 162.404,-88.1984"/>
</g>
<!-- Attribute&#45;&gt;MapTo -->
<g id="edge4" class="edge"><title>Attribute&#45;&gt;MapTo</title>
<path fill="none" stroke="black" d="M206.928,-44.2128C214.839,-57.3989 225.646,-75.4096 234.455,-90.0917"/>
<polygon fill="none" stroke="black" points="231.492,-91.9561 239.638,-98.7303 237.494,-88.3546 231.492,-91.9561"/>
</g>
<!-- Entity -->
<g id="node7" class="node"><title>Entity</title>
<polygon fill="none" stroke="black" points="75,-6 75,-44 145,-44 145,-6 75,-6"/>
<text text-anchor="middle" x="110" y="-32" font-family="Arial" font-size="10.00">Entity</text>
<polyline fill="none" stroke="black" points="75,-25 145,-25 "/>
<text text-anchor="middle" x="110" y="-13" font-family="Arial" font-size="10.00">val id: String</text>
</g>
<!-- Entity&#45;&gt;Node_ -->
<g id="edge5" class="edge"><title>Entity&#45;&gt;Node_</title>
<path fill="none" stroke="black" d="M118.702,-44.2128C124.942,-57.2745 133.445,-75.0702 140.423,-89.6753"/>
<polygon fill="none" stroke="black" points="137.28,-91.2161 144.749,-98.7303 143.596,-88.1984 137.28,-91.2161"/>
</g>
<!-- AttributeType -->
<g id="node8" class="node"><title>AttributeType</title>
<polygon fill="none" stroke="black" points="408,-6 408,-44 494,-44 494,-6 408,-6"/>
<text text-anchor="middle" x="451" y="-32" font-family="Arial" font-size="10.00">AttributeType[T]</text>
<polyline fill="none" stroke="black" points="408,-25 494,-25 "/>
<text text-anchor="middle" x="451" y="-13" font-family="Arial" font-size="10.00">val default: T</text>
</g>
<!-- AttributeType&#45;&gt;Key -->
<g id="edge7" class="edge"><title>AttributeType&#45;&gt;Key</title>
<path fill="none" stroke="black" d="M462.535,-44.2128C470.886,-57.3989 482.293,-75.4096 491.591,-90.0917"/>
<polygon fill="none" stroke="black" points="488.755,-92.1548 497.063,-98.7303 494.669,-88.4094 488.755,-92.1548"/>
</g>
<!-- Head -->
<g id="node9" class="node"><title>Head</title>
<polygon fill="none" stroke="black" points="512,-0.5 512,-49.5 620,-49.5 620,-0.5 512,-0.5"/>
<text text-anchor="middle" x="566" y="-37.5" font-family="Arial" font-size="10.00">Head</text>
<polyline fill="none" stroke="black" points="512,-30.5 620,-30.5 "/>
<text text-anchor="start" x="520" y="-18.5" font-family="Arial" font-size="10.00">val entity: Entity</text>
<text text-anchor="start" x="520" y="-7.5" font-family="Arial" font-size="10.00">val link: RelationType</text>
</g>
<!-- Head&#45;&gt;Key -->
<g id="edge8" class="edge"><title>Head&#45;&gt;Key</title>
<path fill="none" stroke="black" d="M550.761,-49.6464C542.767,-62.0515 532.956,-77.2749 524.749,-90.0097"/>
<polygon fill="none" stroke="black" points="521.581,-88.4652 519.106,-98.7669 527.465,-92.2571 521.581,-88.4652"/>
</g>
<!-- Model -->
<g id="node10" class="node"><title>Model</title>
<polygon fill="none" stroke="black" points="246.5,-0.5 246.5,-49.5 389.5,-49.5 389.5,-0.5 246.5,-0.5"/>
<text text-anchor="middle" x="318" y="-37.5" font-family="Arial" font-size="10.00">Model</text>
<polyline fill="none" stroke="black" points="246.5,-30.5 389.5,-30.5 "/>
<text text-anchor="start" x="254.5" y="-18.5" font-family="Arial" font-size="10.00">def toVector: Vector[Elem]</text>
<text text-anchor="middle" x="318" y="-7.5" font-family="Arial" font-size="10.00">def toMap: Map[Key, MapTo]</text>
</g>
<!-- Model&#45;&gt;MapTo -->
<g id="edge6" class="edge"><title>Model&#45;&gt;MapTo</title>
<path fill="none" stroke="black" d="M300.134,-49.6464C290.579,-62.2923 278.811,-77.8671 269.079,-90.7487"/>
<polygon fill="none" stroke="black" points="266.256,-88.6783 263.021,-98.7669 271.841,-92.8981 266.256,-88.6783"/>
</g>
</g>
</svg>
