<?xml version="1.0" encoding="UTF-8" standalone="no"?>
<!DOCTYPE svg PUBLIC "-//W3C//DTD SVG 1.1//EN"
 "http://www.w3.org/Graphics/SVG/1.1/DTD/svg11.dtd">
<!-- Generated by graphviz version 2.36.0 (20140111.2315)
 -->
<!-- Title: G Pages: 1 -->
<svg width="239pt" height="220pt"
 viewBox="0.00 0.00 239.00 220.00" xmlns="http://www.w3.org/2000/svg" xmlns:xlink="http://www.w3.org/1999/xlink">
<g id="graph0" class="graph" transform="scale(1 1) rotate(0) translate(4 216)">
<title>G</title>
<polygon fill="white" stroke="none" points="-4,4 -4,-216 235,-216 235,4 -4,4"/>
<!-- Elem -->
<g id="node1" class="node"><title>Elem</title>
<polygon fill="none" stroke="black" points="76,-175 76,-211 130,-211 130,-175 76,-175"/>
<text text-anchor="middle" x="103" y="-190.5" font-family="Arial" font-size="10.00">Elem</text>
</g>
<!-- Relation -->
<g id="node2" class="node"><title>Relation</title>
<polygon fill="none" stroke="black" points="0,-77 0,-137 108,-137 108,-77 0,-77"/>
<text text-anchor="middle" x="54" y="-125" font-family="Arial" font-size="10.00">Relation</text>
<polyline fill="none" stroke="black" points="0,-118 108,-118 "/>
<text text-anchor="start" x="8" y="-106" font-family="Arial" font-size="10.00">val entity: Entity</text>
<text text-anchor="start" x="8" y="-95" font-family="Arial" font-size="10.00">val link: RelationType</text>
<text text-anchor="start" x="8" y="-84" font-family="Arial" font-size="10.00">val tail: Model</text>
</g>
<!-- Relation&#45;&gt;Elem -->
<g id="edge2" class="edge"><title>Relation&#45;&gt;Elem</title>
<path fill="none" stroke="black" d="M71.1378,-137.379C76.5453,-146.649 82.4803,-156.823 87.7471,-165.852"/>
<polygon fill="none" stroke="black" points="84.8817,-167.886 92.9437,-174.761 90.9281,-164.359 84.8817,-167.886"/>
</g>
<!-- Node_ -->
<g id="node3" class="node"><title>Node_</title>
<polygon fill="none" stroke="black" points="126,-89 126,-125 180,-125 180,-89 126,-89"/>
<text text-anchor="middle" x="153" y="-104.5" font-family="Arial" font-size="10.00">Node</text>
</g>
<!-- Node_&#45;&gt;Elem -->
<g id="edge1" class="edge"><title>Node_&#45;&gt;Elem</title>
<path fill="none" stroke="black" d="M142.64,-125.405C135.621,-137.196 126.225,-152.981 118.343,-166.224"/>
<polygon fill="none" stroke="black" points="115.283,-164.522 113.176,-174.905 121.298,-168.102 115.283,-164.522"/>
</g>
<!-- Attribute -->
<g id="node4" class="node"><title>Attribute</title>
<polygon fill="none" stroke="black" points="77.5,-1 77.5,-39 142.5,-39 142.5,-1 77.5,-1"/>
<text text-anchor="middle" x="110" y="-27" font-family="Arial" font-size="10.00">Attribute[T]</text>
<polyline fill="none" stroke="black" points="77.5,-20 142.5,-20 "/>
<text text-anchor="middle" x="110" y="-8" font-family="Arial" font-size="10.00">val value: T</text>
</g>
<!-- Attribute&#45;&gt;Node_ -->
<g id="edge3" class="edge"><title>Attribute&#45;&gt;Node_</title>
<path fill="none" stroke="black" d="M119.119,-39.0263C125.11,-50.869 133.047,-66.5577 139.733,-79.7735"/>
<polygon fill="none" stroke="black" points="136.697,-81.5261 144.334,-88.8693 142.943,-78.3662 136.697,-81.5261"/>
</g>
<!-- Entity -->
<g id="node5" class="node"><title>Entity</title>
<polygon fill="none" stroke="black" points="161,-1 161,-39 231,-39 231,-1 161,-1"/>
<text text-anchor="middle" x="196" y="-27" font-family="Arial" font-size="10.00">Entity</text>
<polyline fill="none" stroke="black" points="161,-20 231,-20 "/>
<text text-anchor="middle" x="196" y="-8" font-family="Arial" font-size="10.00">val id: String</text>
</g>
<!-- Entity&#45;&gt;Node_ -->
<g id="edge4" class="edge"><title>Entity&#45;&gt;Node_</title>
<path fill="none" stroke="black" d="M186.881,-39.0263C180.89,-50.869 172.953,-66.5577 166.267,-79.7735"/>
<polygon fill="none" stroke="black" points="163.057,-78.3662 161.666,-88.8693 169.303,-81.5261 163.057,-78.3662"/>
</g>
</g>
</svg>
